<svg preserveAspectRatio="xMidYMid meet" data-bbox="0 0 3333.336 1697.36" xmlns="http://www.w3.org/2000/svg" viewBox="0 0 3334 1698" fill-rule="evenodd" clip-rule="evenodd" stroke-linejoin="round" stroke-miterlimit="2" data-type="ugc" role="presentation" aria-hidden="true" aria-label="">
  <g>
    <path fill="none" d="M3333.336 0v1697.36H0V0z"></path>
    <path d="M847.65 676.322c-18.437 1.884-34.279 5.219-51.724 8.382-57.205 10.371-108.005 6.947-161.846-16.265a210.417 107.146 0 0 1-58.438-40.662c-6.27-7.625-8.154-17.2-5.158-26.508 10.129-31.438 46.946-58.672 74.437-73.263 71.871-38.148 157.688-42.239 235.013-20.275 113.8 32.324 208.434 116.624 250.934 232.377 26.925 73.335 30.3 152.288 8.779 227.38-1.404 4.891-1.775 8.993-4.575 13.684a996.667 507.51 0 0 0-15.659-126.375c-22.325-59.577-61.762-109.758-114.446-142.555-47.337-29.47-101.879-41.579-157.316-35.92" fill="#ffffff" fill-rule="nonzero"></path>
    <path d="M959.417 1087.802c9.321 13.443-.958 37.268-8.804 48.884-10.8 16-23.77 29.354-38.85 41.025-16.4 12.688-33.016 23.35-51.933 31.567-32.421 14.084-65.675 22.017-100.954 23.572-106.371 4.695-215.888-43.926-287.45-126.56-31.984-36.932-56.642-79.383-71.913-126.665-23.43-72.57-22.992-151.28-.642-223.863-.433 13.562-.912 25.492-.325 38.738 5.525 54.112 25.871 104.579 58.663 146.828 36.579 47.142 84.658 82.967 139.546 103.039 59.096 21.611 112.083 16.436 172.166 4.799 20.655-4 40.18-7.104 61.38-7.469 35.2-.594 69.758 6.747 101.158 22.851 10.963 5.623 20.625 12.68 27.958 23.254" fill="#ffffff" fill-rule="nonzero"></path>
    <path d="M986.95 1167.625c30.976-26.025 48.288-64.704 45.684-106.113-1.02-16.288-7.225-30.88-17.367-42.62-1.537-1.779-2.67-5.059-2.304-6.822.392-1.888 2.663-5.198 4.45-5.875 15.917-5.996 30.209-13.271 43.634-23.941 18.37-13.887 32.987-31.826 41.158-53.934 6.613-18.149 8.175-35.795 7.475-55.902 12.333 33.153 17.125 68.39 14 103.632-1.833 20.686-4.904 40.032-11.583 59.683-23.03 67.733-77.796 118.296-140.863 144.862z" fill="#ffffff" fill-rule="nonzero"></path>
    <path d="M501.234 765.507c-44.842 17.496-72.5 55.932-65.213 106.51-14.075-24.39-23.179-60.965-24.929-88.412-5.304-83.107 55.225-152.374 125.22-183.043-29.574 26.033-48.12 62.37-48.816 102.412-.312 18.075 4.342 35.053 15.242 48.39 1.867 2.285 3.604 4.602 3.467 7.384-.113 2.342-2.517 5.8-4.971 6.76" fill="#ffffff" fill-rule="nonzero"></path>
    <path d="M1854.572 737.651h-248.829c-39.458 0-71.446 31.987-71.446 71.45v8.08h240.746v24.353c0 122.562-98.337 175.06-219.225 176.604-59.992 1.076-117.1-22.358-159.846-65.104-42.763-42.753-65.896-99.538-65.12-159.87 1.545-120.872 102.516-219.208 225.078-219.208h104.934c21.958 0 39.762-17.803 39.762-39.767 0-21.96-17.804-39.76-39.762-39.76H1556.75c-166.317 0-303.333 133.548-305.417 297.71-1.054 81.934 30.346 159.042 88.417 217.099 57.121 57.133 132.671 88.447 213.134 88.447q1.987 0 3.975-.026c164.154-2.096 297.712-90.639 297.712-256.954z" fill="#ffffff" fill-rule="nonzero"></path>
    <path d="M2092.352 1054.597V573.954h152.558c21.958 0 39.763-17.801 39.763-39.763s-17.805-39.767-39.763-39.767h-456.159c-21.958 0-39.762 17.805-39.762 39.767s17.804 39.76 39.762 39.76h224.071v480.646c0 21.964 17.805 39.763 39.767 39.763 21.958 0 39.763-17.8 39.763-39.76" fill="#ffffff" fill-rule="nonzero"></path>
    <path d="m2861.919 520.684-220.5 447.261-219.367-447.178a47.13 47.13 0 0 0-42.313-26.373h-.566c-26.025 0-47.125 21.103-47.125 47.127v512.37c0 22.082 17.9 39.983 39.983 39.983s39.988-17.9 39.988-39.983V681.532l189.775 387.465c7.458 15.23 22.933 24.88 39.887 24.88s32.43-9.65 39.888-24.88l189.775-387.462v372.358c0 22.083 17.904 39.983 39.987 39.983s39.984-17.9 39.984-39.983V541.52c0-26.024-21.1-47.125-47.125-47.125a47.12 47.12 0 0 0-42.271 26.288" fill="#ffffff" fill-rule="nonzero"></path>
    <path d="m1303.697 1226.992 16.196-39.237h.42l15.78 39.237zm8.654-61.858-40.912 94.954h18.991l7.817-19.133h43.287l7.684 19.133h19.691l-39.941-94.954z" fill="#ffffff" fill-rule="nonzero"></path>
    <path d="M1506.593 1165.132h-18.433v94.954h64.654v-15.917h-46.221z" fill="#ffffff" fill-rule="nonzero"></path>
    <path fill="#ffffff" d="M1693.293 1165.132v94.952h-18.433v-94.952z"></path>
    <path d="M1867.276 1200.32h-.275l-27.791-35.186h-17.313v94.954h18.15v-67.03h.563l24.996 30.584h2.929l25.133-30.585h.421v67.031h18.154v-94.956h-16.758z" fill="#ffffff" fill-rule="nonzero"></path>
    <path d="M2040.852 1260.088h70.241v-15.917h-51.808v-24.162h37.563v-15.779h-37.563v-23.18h51.808v-15.916h-70.241z" fill="#ffffff" fill-rule="nonzero"></path>
    <path d="M2300.16 1231.462h-.42l-49.572-66.33h-16.754v94.954h17.454l-.7-67.024h.563l49.57 67.024h16.618v-94.954h-17.317z" fill="#ffffff" fill-rule="nonzero"></path>
    <path d="M2438.681 1181.05h31.275v79.038h18.433v-79.037h31.284v-15.917h-80.992z" fill="#ffffff" fill-rule="nonzero"></path>
    <path d="M2704.627 1235.3q-8.87 9.147-21.854 9.145-12.988.002-21.783-9.145-8.792-9.142-8.796-22.691 0-13.543 8.866-22.692 8.863-9.14 21.713-9.144 12.983.004 21.854 9.144 8.867 9.151 8.867 22.692 0 13.549-8.867 22.691m-21.854-71.282q-20.946-.002-35.33 14.033-14.383 14.033-14.383 34.842 0 20.661 14.317 34.486 14.308 13.825 35.396 13.825 21.083.002 35.467-13.897 14.383-13.886 14.383-34.414 0-20.67-14.45-34.775-14.458-14.098-35.4-14.1" fill="#ffffff" fill-rule="nonzero"></path>
    <path d="M2922.807 1212.4q-8.376-6.632-27.93-9.284-13.683-1.952-18.712-4.75-5.025-2.79-5.025-7.82t5.096-7.957q5.1-2.934 13.612-2.934 8.8 0 14.667 3.978 5.862 3.984 7.816 11.243h17.876q-1.68-14.245-12.288-22.55-10.617-8.308-27.092-8.308-17.17-.002-27.646 8.028t-10.475 21.154q0 10.894 7.684 16.897 7.675 6.004 25.97 8.516 16.059 2.237 21.155 5.379t5.096 8.868q0 5.86-5.513 9.285-5.517 3.422-14.592 3.422-8.941 0-15.012-4.264-6.075-4.254-7.47-11.237h-18.013q.975 14.659 11.658 22.902 10.683 8.236 27.858 8.236 17.875 0 28.767-8.17t10.892-22.13q0-11.869-8.38-18.503" fill="#ffffff" fill-rule="nonzero"></path>
  </g>
</svg>
